<svg id="Layer_1" data-name="Layer 1" xmlns="http://www.w3.org/2000/svg" viewBox="0 0 601 601"><defs><style>.cls-1{fill:#00288b;}.cls-1,.cls-2{stroke:#000;stroke-miterlimit:10;}.cls-2{fill:#fff;}</style></defs><title>zergback</title><rect class="cls-1" x="0.5" y="0.5" width="600" height="600"/><path class="cls-2" d="M57,509.75c17-11,59,14.25,59,14.25l26,2.19,28-25.09,39,25,23,10,23,31,18-13,19,27,46-34,27,34,11-26,21,6,23-38,31,25,12-29,98,10-22-27,22-2-5-25,25-14-8-7,8-15-29-49,20-54-10-12,11-17-38-52,27-32.75L549,187.5h18L553,159l-1-26,20-11-19-5.75L581,76.5H537L563,33l-73.88,80L455,51,434,63,423,78,407,56l-6,11L361,51l-35,59-17-1-9-21L256,40,240,93,185,40,156,94,133,33,57,54,83,69,57,102l30,72L35,216l43,25.25L35,320.5H61L35,365l16,2L35,413s14.37,57.1,24,36c21-46-37,98-37,98Z" transform="translate(0.5 0.5)"/></svg>